<svg xmlns="http://www.w3.org/2000/svg" xmlns:xlink="http://www.w3.org/1999/xlink" zoomAndPan="magnify" preserveAspectRatio="xMidYMid meet" version="1.0" viewBox="33.82 16.49 77.02 14.99"><defs><g/><clipPath id="6f235ce623"><path d="M 106.710938 27.074219 L 110.832031 27.074219 L 110.832031 31.195312 L 106.710938 31.195312 Z M 106.710938 27.074219 " clip-rule="nonzero"/></clipPath><clipPath id="dbaa6d966d"><path d="M 108.773438 27.074219 C 107.636719 27.074219 106.710938 27.996094 106.710938 29.132812 C 106.710938 30.273438 107.636719 31.195312 108.773438 31.195312 C 109.910156 31.195312 110.832031 30.273438 110.832031 29.132812 C 110.832031 27.996094 109.910156 27.074219 108.773438 27.074219 Z M 108.773438 27.074219 " clip-rule="nonzero"/></clipPath></defs><g clip-path="url(#6f235ce623)"><g clip-path="url(#dbaa6d966d)"><path fill="#a7db28" d="M 106.710938 27.074219 L 110.832031 27.074219 L 110.832031 31.195312 L 106.710938 31.195312 Z M 106.710938 27.074219 " fill-opacity="1" fill-rule="nonzero"/></g></g><g fill="#a7db28" fill-opacity="0.4"><g transform="translate(35.07195, 31.402785)"><g><path d="M 4.421875 0 L 5.828125 -3.015625 L 10.21875 -3.015625 L 10.21875 0 Z M 0.3125 -10.65625 L 0.3125 -13.65625 L 10.5 -13.65625 L 9.09375 -10.65625 Z M 8.84375 -10.25 L 3.984375 0 L -0.078125 0 L 5.0625 -10.25 Z M 8.84375 -10.25 "/></g></g></g><g fill="#a7db28" fill-opacity="0.4"><g transform="translate(43.101422, 31.402785)"><g/></g></g><g fill="#a7db28" fill-opacity="0.4"><g transform="translate(46.839649, 31.402785)"><g><path d="M 8.453125 -13.65625 L 8.46875 -13.65625 L 13.15625 0 L 9.828125 0 L 6.78125 -8.8125 Z M 4.3125 -2.8125 L 3.359375 0 L 0.046875 0 L 4.734375 -13.65625 L 8.03125 -13.65625 L 5.25 -5.53125 L 7.484375 -5.53125 L 8.453125 -2.8125 Z M 4.3125 -2.8125 "/></g></g></g><g fill="#a7db28" fill-opacity="0.4"><g transform="translate(57.52189, 31.402785)"><g/></g></g><g fill="#a7db28" fill-opacity="0.4"><g transform="translate(61.260116, 31.402785)"><g><path d="M 4.109375 -13.65625 L 10.09375 0 L 6.96875 0 L 3.90625 -7.09375 L 3.90625 -13.65625 Z M 0.546875 0 L 0.546875 -13.65625 L 3.515625 -13.65625 L 3.515625 0 Z M 7.5625 -6.765625 L 7.5625 -13.65625 L 10.53125 -13.65625 L 10.53125 0 Z M 7.5625 -6.765625 "/></g></g></g><g fill="#a7db28" fill-opacity="0.4"><g transform="translate(69.835745, 31.402785)"><g/></g></g><g fill="#a7db28" fill-opacity="0.4"><g transform="translate(73.573973, 31.402785)"><g><path d="M 5.765625 -13.703125 L 5.765625 -10.6875 C 5.109375 -10.550781 4.554688 -10.117188 4.109375 -9.390625 C 3.660156 -8.660156 3.4375 -7.800781 3.4375 -6.8125 L 0.234375 -6.8125 C 0.234375 -8.632812 0.765625 -10.207031 1.828125 -11.53125 C 2.898438 -12.851562 4.210938 -13.578125 5.765625 -13.703125 Z M 8.09375 -4.046875 C 8.625 -4.816406 8.890625 -5.738281 8.890625 -6.8125 C 8.890625 -7.882812 8.625 -8.800781 8.09375 -9.5625 C 7.570312 -10.332031 6.925781 -10.71875 6.15625 -10.71875 L 6.15625 -13.734375 C 7.800781 -13.734375 9.203125 -13.054688 10.359375 -11.703125 C 11.515625 -10.347656 12.09375 -8.71875 12.09375 -6.8125 C 12.09375 -4.90625 11.515625 -3.28125 10.359375 -1.9375 C 9.203125 -0.59375 7.800781 0.078125 6.15625 0.078125 C 4.582031 0.078125 3.222656 -0.550781 2.078125 -1.8125 C 0.929688 -3.082031 0.316406 -4.628906 0.234375 -6.453125 L 3.453125 -6.453125 C 3.523438 -5.460938 3.820312 -4.625 4.34375 -3.9375 C 4.863281 -3.25 5.46875 -2.90625 6.15625 -2.90625 C 6.925781 -2.90625 7.570312 -3.285156 8.09375 -4.046875 Z M 8.09375 -4.046875 "/></g></g></g><g fill="#a7db28" fill-opacity="0.4"><g transform="translate(83.397967, 31.402785)"><g/></g></g><g fill="#a7db28" fill-opacity="0.4"><g transform="translate(87.136195, 31.402785)"><g><path d="M 0.046875 -13.65625 L 3.359375 -13.65625 L 8.21875 0 L 4.9375 0 Z M 9.90625 -13.65625 L 13.15625 -13.65625 L 8.421875 -0.578125 L 6.84375 -5.015625 Z M 9.90625 -13.65625 "/></g></g></g><g fill="#a7db28" fill-opacity="0.4"><g transform="translate(97.818438, 31.402785)"><g/></g></g><g fill="#a7db28" fill-opacity="0.4"><g transform="translate(101.556663, 31.402785)"><g><path d="M 0.546875 0 L 0.546875 -13.65625 L 3.671875 -13.65625 L 3.671875 0 Z M 0.546875 0 "/></g></g></g><g fill="#000000" fill-opacity="1"><g transform="translate(33.894889, 30.225723)"><g><path d="M 4.421875 0 L 5.828125 -3.015625 L 10.21875 -3.015625 L 10.21875 0 Z M 0.3125 -10.65625 L 0.3125 -13.65625 L 10.5 -13.65625 L 9.09375 -10.65625 Z M 8.84375 -10.25 L 3.984375 0 L -0.078125 0 L 5.0625 -10.25 Z M 8.84375 -10.25 "/></g></g></g><g fill="#000000" fill-opacity="1"><g transform="translate(41.92436, 30.225723)"><g/></g></g><g fill="#000000" fill-opacity="1"><g transform="translate(45.662587, 30.225723)"><g><path d="M 8.453125 -13.65625 L 8.46875 -13.65625 L 13.15625 0 L 9.828125 0 L 6.78125 -8.8125 Z M 4.3125 -2.8125 L 3.359375 0 L 0.046875 0 L 4.734375 -13.65625 L 8.03125 -13.65625 L 5.25 -5.53125 L 7.484375 -5.53125 L 8.453125 -2.8125 Z M 4.3125 -2.8125 "/></g></g></g><g fill="#000000" fill-opacity="1"><g transform="translate(56.344828, 30.225723)"><g/></g></g><g fill="#000000" fill-opacity="1"><g transform="translate(60.083055, 30.225723)"><g><path d="M 4.109375 -13.65625 L 10.09375 0 L 6.96875 0 L 3.90625 -7.09375 L 3.90625 -13.65625 Z M 0.546875 0 L 0.546875 -13.65625 L 3.515625 -13.65625 L 3.515625 0 Z M 7.5625 -6.765625 L 7.5625 -13.65625 L 10.53125 -13.65625 L 10.53125 0 Z M 7.5625 -6.765625 "/></g></g></g><g fill="#000000" fill-opacity="1"><g transform="translate(68.658683, 30.225723)"><g/></g></g><g fill="#000000" fill-opacity="1"><g transform="translate(72.396912, 30.225723)"><g><path d="M 5.765625 -13.703125 L 5.765625 -10.6875 C 5.109375 -10.550781 4.554688 -10.117188 4.109375 -9.390625 C 3.660156 -8.660156 3.4375 -7.800781 3.4375 -6.8125 L 0.234375 -6.8125 C 0.234375 -8.632812 0.765625 -10.207031 1.828125 -11.53125 C 2.898438 -12.851562 4.210938 -13.578125 5.765625 -13.703125 Z M 8.09375 -4.046875 C 8.625 -4.816406 8.890625 -5.738281 8.890625 -6.8125 C 8.890625 -7.882812 8.625 -8.800781 8.09375 -9.5625 C 7.570312 -10.332031 6.925781 -10.71875 6.15625 -10.71875 L 6.15625 -13.734375 C 7.800781 -13.734375 9.203125 -13.054688 10.359375 -11.703125 C 11.515625 -10.347656 12.09375 -8.71875 12.09375 -6.8125 C 12.09375 -4.90625 11.515625 -3.28125 10.359375 -1.9375 C 9.203125 -0.59375 7.800781 0.078125 6.15625 0.078125 C 4.582031 0.078125 3.222656 -0.550781 2.078125 -1.8125 C 0.929688 -3.082031 0.316406 -4.628906 0.234375 -6.453125 L 3.453125 -6.453125 C 3.523438 -5.460938 3.820312 -4.625 4.34375 -3.9375 C 4.863281 -3.25 5.46875 -2.90625 6.15625 -2.90625 C 6.925781 -2.90625 7.570312 -3.285156 8.09375 -4.046875 Z M 8.09375 -4.046875 "/></g></g></g><g fill="#000000" fill-opacity="1"><g transform="translate(82.220905, 30.225723)"><g/></g></g><g fill="#000000" fill-opacity="1"><g transform="translate(85.959134, 30.225723)"><g><path d="M 0.046875 -13.65625 L 3.359375 -13.65625 L 8.21875 0 L 4.9375 0 Z M 9.90625 -13.65625 L 13.15625 -13.65625 L 8.421875 -0.578125 L 6.84375 -5.015625 Z M 9.90625 -13.65625 "/></g></g></g><g fill="#000000" fill-opacity="1"><g transform="translate(96.641376, 30.225723)"><g/></g></g><g fill="#000000" fill-opacity="1"><g transform="translate(100.379602, 30.225723)"><g><path d="M 0.546875 0 L 0.546875 -13.65625 L 3.671875 -13.65625 L 3.671875 0 Z M 0.546875 0 "/></g></g></g></svg>